<svg xmlns="http://www.w3.org/2000/svg" width="60" height="20"><path fill="#2AA9E0" d="M38.098 4.978c-.596.264-1.236.442-1.909.523.687-.412 1.213-1.062 1.461-1.839-.643.382-1.354.657-2.109.807-.606-.646-1.47-1.049-2.426-1.049-1.835 0-3.321 1.486-3.321 3.322 0 .26.028.514.086.757-2.762-.139-5.211-1.461-6.85-3.472-.285.49-.449 1.062-.449 1.671 0 1.152.586 2.169 1.479 2.765-.545-.017-1.058-.166-1.506-.415v.042c0 1.61 1.145 2.952 2.666 3.257-.279.076-.572.117-.877.117-.213 0-.422-.021-.625-.06.424 1.32 1.65 2.281 3.104 2.307-1.138.893-2.569 1.424-4.127 1.424-.268 0-.532-.017-.792-.047 1.47.942 3.217 1.493 5.093 1.492 6.112 0 9.453-5.062 9.453-9.453l-.01-.43c.649-.468 1.212-1.054 1.659-1.719z"/><path fill-rule="evenodd" clip-rule="evenodd" fill="#00ADEE" d="M56.436 6.486c.097-.543.095-1.103-.241-1.525-.468-.592-1.465-.614-2.148-.51-.556.085-2.435.914-3.073 2.899 1.132-.086 1.726.082 1.616 1.329-.045.522-.309 1.094-.603 1.642-.34.632-.978 1.872-1.812.979-.753-.805-.696-2.345-.869-3.37-.095-.575-.197-1.292-.385-1.884-.163-.508-.535-1.122-.991-1.254-.489-.145-1.093.081-1.448.29-1.131.665-1.993 1.61-2.971 2.39v.073c.193.186.246.489.531.53.674.099 1.315-.626 1.763.129.272.462.357.969.532 1.466.232.663.413 1.386.603 2.148.323 1.292.72 3.222 1.837 3.695.569.241 1.426-.082 1.858-.34 1.175-.694 2.09-1.702 2.873-2.728 1.79-2.425 2.778-5.174 2.928-5.959z"/><path fill="#3C5A98" d="M8.152 17.77v-7.292h-1.928v-2.625h1.928v-2.242c0-1.762 1.139-3.38 3.762-3.38 1.062 0 1.85.102 1.85.102l-.062 2.451s-.803-.007-1.676-.007c-.947 0-1.098.436-1.098 1.16v1.917h2.848l-.123 2.625h-2.725v7.292h-2.776z"/></svg>