<svg xmlns="http://www.w3.org/2000/svg" width="425" height="10"><g fill="#fff"><path d="M6.668 9.494h-5.718v-7.672h.9v6.772h4.818v.9zM22.308 9.494h-1.003l-1.248-2.629h-3.683l-1.207 2.629h-1.003l3.652-7.672h.9l3.592 7.672zm-4.041-6.577l-1.442 3.048h2.833l-1.391-3.048zM37.271 9.494h-.817l-1.647-5.934h-.021l-1.545 5.934h-.818l-2.619-7.672h.9l2.118 6.087h.021l1.504-6.087h.859l1.646 6.087h.021l1.975-6.087h.9l-2.477 7.672zM55.194 9.494h-1.033l-1.77-3.191h-3.038v3.191h-.901v-7.672h3.827c1.155 0 3.1.215 3.1 2.199 0 1.657-1.064 2.189-1.965 2.281l1.78 3.192zm-2.548-4.092c1.014 0 1.831-.123 1.831-1.371 0-.951-.838-1.309-1.667-1.309h-3.457v2.68h3.293zM71.305 9.494h-6.526v-7.672h6.302v.9h-5.402v2.342h2.845v.9h-2.845v2.63h5.627v.9zM87.559 9.494h-.9l-4.972-6.25h-.021v6.25h-.9v-7.672h.9l4.972 6.333h.021v-6.333h.9v7.672zM105.04 8.134c-.439.409-1.433 1.524-3.683 1.524-2.076 0-4.256-1.351-4.256-4s2.18-4 4.123-4c2.117 0 3.305 1.136 3.703 1.524l-.645.624c-.419-.357-1.483-1.248-3.038-1.248-1.964 0-3.243 1.504-3.243 3.079 0 1.576 1.279 3.12 3.396 3.12 1.79 0 2.67-.962 3.028-1.31l.615.687zM121.039 9.494h-6.527v-7.672h6.302v.9h-5.401v2.342h2.845v.9h-2.845v2.63h5.627v.9zM148.234 9.494h-1.003l-1.248-2.629h-3.683l-1.207 2.629h-1.003l3.652-7.672h.9l3.592 7.672zm-4.041-6.577l-1.442 3.048h2.834l-1.392-3.048zM163.936 9.494h-.9l-4.972-6.25h-.021v6.25h-.9v-7.672h.9l4.972 6.333h.021v-6.333h.9v7.672zM177.816 1.822c2.619 0 3.539 2.465 3.539 3.836s-.735 3.836-3.539 3.836h-3.765v-7.672h3.765zm0 6.773c1.749 0 2.64-1.709 2.64-2.937 0-1.248-.891-2.936-2.64-2.936h-2.864v5.872h2.864zM207.457 9.494h-5.718v-7.672h.899v6.772h4.818v.9zM219.884 1.658c2.353 0 4.123 1.842 4.123 4 0 2.159-1.771 4-4.123 4-2.352 0-4.123-1.841-4.123-4 0-2.158 1.76-4 4.123-4zm0 7.1c1.842 0 3.223-1.401 3.223-3.1s-1.381-3.1-3.223-3.1c-1.841 0-3.222 1.401-3.222 3.1s1.381 3.1 3.222 3.1zM240.507 9.494h-.9l-4.972-6.25h-.021v6.25h-.899v-7.672h.899l4.972 6.333h.021v-6.333h.9v7.672zM257.61 7.356c0 1.401-1.493 2.302-3.468 2.302-2.118 0-4.173-1.279-4.173-4.051 0-2.057 1.677-3.949 4.204-3.949 1.861 0 2.822.982 3.283 1.422l-.613.645c-.48-.42-1.36-1.166-2.63-1.166-2.035 0-3.345 1.483-3.345 3.049 0 1.841 1.3 3.15 3.314 3.15 1.678 0 2.527-.757 2.527-1.462v-1.075h-2.639v-.9h3.538v2.035zM284.919 9.494h-1.002l-1.249-2.629h-3.682l-1.208 2.629h-1.002l3.652-7.672h.899l3.592 7.672zm-4.041-6.577l-1.442 3.048h2.834l-1.392-3.048zM300.405 9.494h-1.033l-1.77-3.191h-3.038v3.191h-.901v-7.672h3.827c1.156 0 3.1.215 3.1 2.199 0 1.657-1.063 2.189-1.965 2.281l1.78 3.192zm-2.548-4.092c1.013 0 1.831-.123 1.831-1.371 0-.951-.838-1.309-1.667-1.309h-3.457v2.68h3.293zM317.344 8.134c-.439.409-1.431 1.524-3.682 1.524-2.077 0-4.257-1.351-4.257-4s2.18-4 4.124-4c2.117 0 3.304 1.136 3.703 1.524l-.645.624c-.419-.357-1.483-1.248-3.038-1.248-1.965 0-3.242 1.504-3.242 3.079 0 1.576 1.277 3.12 3.396 3.12 1.79 0 2.67-.962 3.027-1.31l.614.687zM333.661 9.494h-.901v-3.56h-4.931v3.56h-.9v-7.672h.9v3.213h4.931v-3.213h.901v7.672zM344.83 9.494h-.899v-7.672h.899v7.672zM357.868 9.494h-.899v-6.771h-2.803v-.9h6.506v.9h-2.804v6.771zM376.444 9.494h-6.527v-7.672h6.303v.9h-5.402v2.342h2.844v.9h-2.844v2.63h5.627v.9zM393.159 8.134c-.44.409-1.433 1.524-3.684 1.524-2.076 0-4.255-1.351-4.255-4s2.179-4 4.122-4c2.117 0 3.305 1.136 3.703 1.524l-.645.624c-.42-.357-1.483-1.248-3.039-1.248-1.963 0-3.242 1.504-3.242 3.079 0 1.576 1.279 3.12 3.396 3.12 1.79 0 2.671-.962 3.028-1.31l.616.687zM405.516 9.494h-.9v-6.771h-2.803v-.9h6.506v.9h-2.803v6.771zM421.165 4.994c1.432 0 2.885.521 2.885 2.22 0 1.667-1.779 2.444-3.663 2.444-2.332 0-3.386-1.166-3.836-1.647l.645-.634c.471.419 1.238 1.381 3.223 1.381 1.729 0 2.731-.654 2.731-1.544 0-.962-.972-1.32-1.739-1.32h-1.617c-1.483 0-2.68-.491-2.68-1.923 0-1.064.963-2.312 3.314-2.312 1.761 0 2.824.839 3.213 1.125l-.562.707c-.553-.369-1.29-.932-2.671-.932-1.729 0-2.394.809-2.394 1.412 0 1.023 1.3 1.023 2.22 1.023h.931z"/></g></svg>